<svg id="SvgjsSvg1006" width="1028" height="998" xmlns="http://www.w3.org/2000/svg" version="1.1" xmlns:xlink="http://www.w3.org/1999/xlink" xmlns:svgjs="http://svgjs.com/svgjs"><defs id="SvgjsDefs1007"><marker id="SvgjsMarker1038" markerWidth="16" markerHeight="12" refX="16" refY="6" viewBox="0 0 16 12" orient="auto" markerUnits="userSpaceOnUse" stroke-dasharray="0,0"><path id="SvgjsPath1039" d="M0,2 L14,6 L0,11 L0,2" fill="#323232" stroke="#323232" stroke-width="2"></path></marker><marker id="SvgjsMarker1054" markerWidth="16" markerHeight="12" refX="16" refY="6" viewBox="0 0 16 12" orient="auto" markerUnits="userSpaceOnUse" stroke-dasharray="0,0"><path id="SvgjsPath1055" d="M0,2 L14,6 L0,11 L0,2" fill="#323232" stroke="#323232" stroke-width="2"></path></marker><marker id="SvgjsMarker1068" markerWidth="16" markerHeight="12" refX="16" refY="6" viewBox="0 0 16 12" orient="auto" markerUnits="userSpaceOnUse" stroke-dasharray="0,0"><path id="SvgjsPath1069" d="M0,2 L14,6 L0,11 L0,2" fill="#323232" stroke="#323232" stroke-width="2"></path></marker></defs><g id="SvgjsG1008" transform="translate(25,25)"><path id="SvgjsPath1009" d="M 0 4Q 0 0 4 0L 441 0Q 445 0 445 4L 445 944Q 445 948 441 948L 4 948Q 0 948 0 944Z" stroke="rgba(50,50,50,1)" stroke-width="2" fill-opacity="1" fill="#ffffff"></path><g id="SvgjsG1010"><text id="SvgjsText1011" font-family="微软雅黑" text-anchor="middle" font-size="13px" width="435px" fill="#323232" font-weight="400" align="middle" anchor="middle" family="微软雅黑" size="13px" weight="400" font-style="" opacity="1" y="58.764285714285705" transform="rotate(0)"></text></g></g><g id="SvgjsG1012" transform="translate(558,25)"><path id="SvgjsPath1013" d="M 0 4Q 0 0 4 0L 441 0Q 445 0 445 4L 445 944Q 445 948 441 948L 4 948Q 0 948 0 944Z" stroke="rgba(50,50,50,1)" stroke-width="2" fill-opacity="1" fill="#ffffff"></path><g id="SvgjsG1014"><text id="SvgjsText1015" font-family="微软雅黑" text-anchor="middle" font-size="13px" width="435px" fill="#323232" font-weight="400" align="middle" anchor="middle" family="微软雅黑" size="13px" weight="400" font-style="" opacity="1" y="58.764285714285705" transform="rotate(0)"></text></g></g><g id="SvgjsG1016" transform="translate(156,42)"><path id="SvgjsPath1017" d="M 91.5 30L 91.5 887" stroke-dasharray="3,4" stroke="rgba(50,50,50,1)" stroke-width="2" fill="none"></path><path id="SvgjsPath1018" d="M 0 0L 183 0L 183 30L 0 30Z" stroke="rgba(50,50,50,1)" stroke-width="2" fill-opacity="1" fill="#ffffff"></path><g id="SvgjsG1019"><text id="SvgjsText1020" font-family="微软雅黑" text-anchor="middle" font-size="13px" width="163px" fill="#323232" font-weight="400" align="middle" anchor="middle" family="微软雅黑" size="13px" weight="400" font-style="" opacity="1" y="5.05" transform="rotate(0)"><tspan id="SvgjsTspan1021" dy="16" x="91.5"><tspan id="SvgjsTspan1022" style="text-decoration:;">webview</tspan></tspan></text></g></g><g id="SvgjsG1023" transform="translate(689,42)"><path id="SvgjsPath1024" d="M 91.5 30L 91.5 887" stroke-dasharray="3,4" stroke="rgba(50,50,50,1)" stroke-width="2" fill="none"></path><path id="SvgjsPath1025" d="M 0 0L 183 0L 183 30L 0 30Z" stroke="rgba(50,50,50,1)" stroke-width="2" fill-opacity="1" fill="#ffffff"></path><g id="SvgjsG1026"><text id="SvgjsText1027" font-family="微软雅黑" text-anchor="middle" font-size="13px" width="163px" fill="#323232" font-weight="400" align="middle" anchor="middle" family="微软雅黑" size="13px" weight="400" font-style="" opacity="1" y="5.05" transform="rotate(0)"><tspan id="SvgjsTspan1028" dy="16" x="91.5"><tspan id="SvgjsTspan1029" style="text-decoration:;">native</tspan></tspan></text></g></g><g id="SvgjsG1030" transform="translate(78,166)"><path id="SvgjsPath1031" d="M 0 0L 339 0L 339 77L 0 77Z" stroke="rgba(50,50,50,1)" stroke-width="2" fill-opacity="1" fill="#ffffff"></path><g id="SvgjsG1032"><text id="SvgjsText1033" font-family="微软雅黑" text-anchor="middle" font-size="13px" width="319px" fill="#323232" font-weight="400" align="middle" anchor="middle" family="微软雅黑" size="13px" weight="400" font-style="" opacity="1" y="28.55" transform="rotate(0)"><tspan id="SvgjsTspan1034" dy="16" x="169.5"><tspan id="SvgjsTspan1035" style="text-decoration:;">拼装调用协议URL</tspan></tspan></text></g></g><g id="SvgjsG1036"><path id="SvgjsPath1037" d="M417 204.5L517.5 204.5L517.5 204.5L618 204.5" stroke="#323232" stroke-width="2" fill="none" marker-end="url(#SvgjsMarker1038)"></path><rect id="SvgjsRect1040" width="116" height="32" x="459.5" y="188.5" fill="#ffffff"></rect><text id="SvgjsText1041" font-family="微软雅黑" text-anchor="middle" font-size="13px" width="116px" fill="#323232" font-weight="400" align="top" anchor="middle" family="微软雅黑" size="13px" weight="400" font-style="" opacity="1" y="186.55" transform="rotate(0)"><tspan id="SvgjsTspan1042" dy="16" x="517.5"><tspan id="SvgjsTspan1043" style="text-decoration:;">安卓：prompt 调用</tspan></tspan><tspan id="SvgjsTspan1044" dy="16" x="517.5"><tspan id="SvgjsTspan1045" style="text-decoration:;">iOS：iframe 调用</tspan></tspan></text></g><g id="SvgjsG1046" transform="translate(618,166)"><path id="SvgjsPath1047" d="M 0 0L 325 0L 325 77L 0 77Z" stroke="rgba(50,50,50,1)" stroke-width="2" fill-opacity="1" fill="#ffffff"></path><g id="SvgjsG1048"><text id="SvgjsText1049" font-family="微软雅黑" text-anchor="middle" font-size="13px" width="305px" fill="#323232" font-weight="400" align="middle" anchor="middle" family="微软雅黑" size="13px" weight="400" font-style="" opacity="1" y="28.55" transform="rotate(0)"><tspan id="SvgjsTspan1050" dy="16" x="162.5"><tspan id="SvgjsTspan1051" style="text-decoration:;">解析执行对象及对应方法、回调函数、参数</tspan></tspan></text></g></g><g id="SvgjsG1052"><path id="SvgjsPath1053" d="M780.5 243L780.5 290.5L780.5 290.5L780.5 338" stroke="#323232" stroke-width="2" fill="none" marker-end="url(#SvgjsMarker1054)"></path><rect id="SvgjsRect1056" width="26" height="16" x="767.5" y="282.5" fill="#ffffff"></rect><text id="SvgjsText1057" font-family="微软雅黑" text-anchor="middle" font-size="13px" width="26px" fill="#323232" font-weight="400" align="top" anchor="middle" family="微软雅黑" size="13px" weight="400" font-style="" opacity="1" y="280.55" transform="rotate(0)"><tspan id="SvgjsTspan1058" dy="16" x="780.5"><tspan id="SvgjsTspan1059" style="text-decoration:;">执行</tspan></tspan></text></g><g id="SvgjsG1060" transform="translate(618,338)"><path id="SvgjsPath1061" d="M 0 0L 325 0L 325 87L 0 87Z" stroke="rgba(50,50,50,1)" stroke-width="2" fill-opacity="1" fill="#ffffff"></path><g id="SvgjsG1062"><text id="SvgjsText1063" font-family="微软雅黑" text-anchor="middle" font-size="13px" width="305px" fill="#323232" font-weight="400" align="middle" anchor="middle" family="微软雅黑" size="13px" weight="400" font-style="" opacity="1" y="33.55" transform="rotate(0)"><tspan id="SvgjsTspan1064" dy="16" x="162.5"><tspan id="SvgjsTspan1065" style="text-decoration:;">对应 Native的对象方法</tspan></tspan></text></g></g><g id="SvgjsG1066"><path id="SvgjsPath1067" d="M780.5 425L780.5 499L346 499" stroke="#323232" stroke-width="2" fill="none" marker-end="url(#SvgjsMarker1068)"></path><rect id="SvgjsRect1070" width="153" height="16" x="523.75" y="491" fill="#ffffff"></rect><text id="SvgjsText1071" font-family="微软雅黑" text-anchor="middle" font-size="13px" width="153px" fill="#323232" font-weight="400" align="top" anchor="middle" family="微软雅黑" size="13px" weight="400" font-style="" opacity="1" y="489.05" transform="rotate(0)"><tspan id="SvgjsTspan1072" dy="16" x="600.25"><tspan id="SvgjsTspan1073" style="text-decoration:;">返回结果，调用js回调函数</tspan></tspan></text></g><g id="SvgjsG1074" transform="translate(149,468)"><path id="SvgjsPath1075" d="M 0 0L 197 0L 197 62L 0 62Z" stroke="rgba(50,50,50,1)" stroke-width="2" fill-opacity="1" fill="#ffffff"></path><g id="SvgjsG1076"><text id="SvgjsText1077" font-family="微软雅黑" text-anchor="middle" font-size="13px" width="177px" fill="#323232" font-weight="400" align="middle" anchor="middle" family="微软雅黑" size="13px" weight="400" font-style="" opacity="1" y="21.05" transform="rotate(0)"><tspan id="SvgjsTspan1078" dy="16" x="98.5"><tspan id="SvgjsTspan1079" style="text-decoration:;">js 回调函数</tspan></tspan></text></g></g></svg>