<svg id="SvgjsSvg1313" width="1036" height="972" xmlns="http://www.w3.org/2000/svg" version="1.1" xmlns:xlink="http://www.w3.org/1999/xlink" xmlns:svgjs="http://svgjs.com/svgjs"><defs id="SvgjsDefs1314"><marker id="SvgjsMarker1368" markerWidth="16" markerHeight="12" refX="16" refY="6" viewBox="0 0 16 12" orient="auto" markerUnits="userSpaceOnUse" stroke-dasharray="0,0"><path id="SvgjsPath1369" d="M0,2 L14,6 L0,11 L0,2" fill="#323232" stroke="#323232" stroke-width="2"></path></marker><marker id="SvgjsMarker1376" markerWidth="16" markerHeight="12" refX="16" refY="6" viewBox="0 0 16 12" orient="auto" markerUnits="userSpaceOnUse" stroke-dasharray="0,0"><path id="SvgjsPath1377" d="M0,2 L14,6 L0,11 L0,2" fill="#323232" stroke="#323232" stroke-width="2"></path></marker><marker id="SvgjsMarker1396" markerWidth="16" markerHeight="12" refX="16" refY="6" viewBox="0 0 16 12" orient="auto" markerUnits="userSpaceOnUse" stroke-dasharray="0,0"><path id="SvgjsPath1397" d="M0,2 L14,6 L0,11 L0,2" fill="#323232" stroke="#323232" stroke-width="2"></path></marker><marker id="SvgjsMarker1422" markerWidth="16" markerHeight="12" refX="16" refY="6" viewBox="0 0 16 12" orient="auto" markerUnits="userSpaceOnUse" stroke-dasharray="0,0"><path id="SvgjsPath1423" d="M0,2 L14,6 L0,11 L0,2" fill="#323232" stroke="#323232" stroke-width="2"></path></marker><marker id="SvgjsMarker1436" markerWidth="16" markerHeight="12" refX="16" refY="6" viewBox="0 0 16 12" orient="auto" markerUnits="userSpaceOnUse" stroke-dasharray="0,0"><path id="SvgjsPath1437" d="M0,2 L14,6 L0,11 L0,2" fill="#323232" stroke="#323232" stroke-width="2"></path></marker><marker id="SvgjsMarker1444" markerWidth="16" markerHeight="12" refX="16" refY="6" viewBox="0 0 16 12" orient="auto" markerUnits="userSpaceOnUse" stroke-dasharray="0,0"><path id="SvgjsPath1445" d="M0,2 L14,6 L0,11 L0,2" fill="#323232" stroke="#323232" stroke-width="2"></path></marker><marker id="SvgjsMarker1452" markerWidth="16" markerHeight="12" refX="16" refY="6" viewBox="0 0 16 12" orient="auto" markerUnits="userSpaceOnUse" stroke-dasharray="0,0"><path id="SvgjsPath1453" d="M0,2 L14,6 L0,11 L0,2" fill="#323232" stroke="#323232" stroke-width="2"></path></marker><marker id="SvgjsMarker1460" markerWidth="16" markerHeight="12" refX="16" refY="6" viewBox="0 0 16 12" orient="auto" markerUnits="userSpaceOnUse" stroke-dasharray="0,0"><path id="SvgjsPath1461" d="M0,2 L14,6 L0,11 L0,2" fill="#323232" stroke="#323232" stroke-width="2"></path></marker></defs><g id="SvgjsG1315" transform="translate(726,25)"><path id="SvgjsPath1316" d="M 0 4Q 0 0 4 0L 281 0Q 285 0 285 4L 285 918Q 285 922 281 922L 4 922Q 0 922 0 918Z" stroke="rgba(50,50,50,1)" stroke-width="2" fill-opacity="1" fill="#ffffff"></path><g id="SvgjsG1317"><text id="SvgjsText1318" font-family="微软雅黑" text-anchor="middle" font-size="13px" width="275px" fill="#323232" font-weight="400" align="middle" anchor="middle" family="微软雅黑" size="13px" weight="400" font-style="" opacity="1" y="56.907142857142844" transform="rotate(0)"></text></g></g><g id="SvgjsG1319" transform="translate(388,25)"><path id="SvgjsPath1320" d="M 0 4Q 0 0 4 0L 281 0Q 285 0 285 4L 285 918Q 285 922 281 922L 4 922Q 0 922 0 918Z" stroke="rgba(50,50,50,1)" stroke-width="2" fill-opacity="1" fill="#ffffff"></path><g id="SvgjsG1321"><text id="SvgjsText1322" font-family="微软雅黑" text-anchor="middle" font-size="13px" width="275px" fill="#323232" font-weight="400" align="middle" anchor="middle" family="微软雅黑" size="13px" weight="400" font-style="" opacity="1" y="56.907142857142844" transform="rotate(0)"></text></g></g><g id="SvgjsG1323" transform="translate(25,25)"><path id="SvgjsPath1324" d="M 0 4Q 0 0 4 0L 281 0Q 285 0 285 4L 285 918Q 285 922 281 922L 4 922Q 0 922 0 918Z" stroke="rgba(50,50,50,1)" stroke-width="2" fill-opacity="1" fill="#ffffff"></path><g id="SvgjsG1325"><text id="SvgjsText1326" font-family="微软雅黑" text-anchor="middle" font-size="13px" width="275px" fill="#323232" font-weight="400" align="middle" anchor="middle" family="微软雅黑" size="13px" weight="400" font-style="" opacity="1" y="56.907142857142844" transform="rotate(0)"></text></g></g><g id="SvgjsG1327" transform="translate(68.5,57)"><path id="SvgjsPath1328" d="M 99 30L 99 843" stroke-dasharray="3,4" stroke="rgba(50,50,50,1)" stroke-width="2" fill="none"></path><path id="SvgjsPath1329" d="M 0 0L 198 0L 198 30L 0 30Z" stroke="rgba(50,50,50,1)" stroke-width="2" fill-opacity="1" fill="#ffffff"></path><g id="SvgjsG1330"><text id="SvgjsText1331" font-family="微软雅黑" text-anchor="middle" font-size="13px" width="178px" fill="#323232" font-weight="400" align="middle" anchor="middle" family="微软雅黑" size="13px" weight="400" font-style="" opacity="1" y="5.05" transform="rotate(0)"><tspan id="SvgjsTspan1332" dy="16" x="99"><tspan id="SvgjsTspan1333" style="text-decoration:;">浏览器</tspan></tspan></text></g></g><g id="SvgjsG1334" transform="translate(431.5,61)"><path id="SvgjsPath1335" d="M 99 30L 99 839" stroke-dasharray="3,4" stroke="rgba(50,50,50,1)" stroke-width="2" fill="none"></path><path id="SvgjsPath1336" d="M 0 0L 198 0L 198 30L 0 30Z" stroke="rgba(50,50,50,1)" stroke-width="2" fill-opacity="1" fill="#ffffff"></path><g id="SvgjsG1337"><text id="SvgjsText1338" font-family="微软雅黑" text-anchor="middle" font-size="13px" width="178px" fill="#323232" font-weight="400" align="middle" anchor="middle" family="微软雅黑" size="13px" weight="400" font-style="" opacity="1" y="5.05" transform="rotate(0)"><tspan id="SvgjsTspan1339" dy="16" x="99"><tspan id="SvgjsTspan1340" style="text-decoration:;">服务器</tspan></tspan></text></g></g><g id="SvgjsG1341" transform="translate(769.5,61)"><path id="SvgjsPath1342" d="M 99 30L 99 839" stroke-dasharray="3,4" stroke="rgba(50,50,50,1)" stroke-width="2" fill="none"></path><path id="SvgjsPath1343" d="M 0 0L 198 0L 198 30L 0 30Z" stroke="rgba(50,50,50,1)" stroke-width="2" fill-opacity="1" fill="#ffffff"></path><g id="SvgjsG1344"><text id="SvgjsText1345" font-family="微软雅黑" text-anchor="middle" font-size="13px" width="178px" fill="#323232" font-weight="400" align="middle" anchor="middle" family="微软雅黑" size="13px" weight="400" font-style="" opacity="1" y="5.05" transform="rotate(0)"><tspan id="SvgjsTspan1346" dy="16" x="99"><tspan id="SvgjsTspan1347" style="text-decoration:;">业务逻辑</tspan></tspan></text></g></g><g id="SvgjsG1348" transform="translate(115,147)"><path id="SvgjsPath1349" d="M 0 0L 105 0L 105 32L 0 32Z" stroke="rgba(50,50,50,1)" stroke-width="2" fill-opacity="1" fill="#ffffff"></path><g id="SvgjsG1350"><text id="SvgjsText1351" font-family="微软雅黑" text-anchor="middle" font-size="13px" width="85px" fill="#323232" font-weight="400" align="middle" anchor="middle" family="微软雅黑" size="13px" weight="400" font-style="" opacity="1" y="6.05" transform="rotate(0)"><tspan id="SvgjsTspan1352" dy="16" x="52.5"><tspan id="SvgjsTspan1353" style="text-decoration:;">发起请求</tspan></tspan></text></g></g><g id="SvgjsG1354" transform="translate(478,147)"><path id="SvgjsPath1355" d="M 0 0L 105 0L 105 32L 0 32Z" stroke="rgba(50,50,50,1)" stroke-width="2" fill-opacity="1" fill="#ffffff"></path><g id="SvgjsG1356"><text id="SvgjsText1357" font-family="微软雅黑" text-anchor="middle" font-size="13px" width="85px" fill="#323232" font-weight="400" align="middle" anchor="middle" family="微软雅黑" size="13px" weight="400" font-style="" opacity="1" y="6.05" transform="rotate(0)"><tspan id="SvgjsTspan1358" dy="16" x="52.5"><tspan id="SvgjsTspan1359" style="text-decoration:;">处理</tspan></tspan></text></g></g><g id="SvgjsG1360" transform="translate(115,272)"><path id="SvgjsPath1361" d="M 0 0L 105 0L 105 32L 0 32Z" stroke="rgba(50,50,50,1)" stroke-width="2" fill-opacity="1" fill="#ffffff"></path><g id="SvgjsG1362"><text id="SvgjsText1363" font-family="微软雅黑" text-anchor="middle" font-size="13px" width="85px" fill="#323232" font-weight="400" align="middle" anchor="middle" family="微软雅黑" size="13px" weight="400" font-style="" opacity="1" y="6.05" transform="rotate(0)"><tspan id="SvgjsTspan1364" dy="16" x="52.5"><tspan id="SvgjsTspan1365" style="text-decoration:;">得到结果</tspan></tspan></text></g></g><g id="SvgjsG1366"><path id="SvgjsPath1367" d="M220 163L349 163L349 163L478 163" stroke="#323232" stroke-width="2" fill="none" marker-end="url(#SvgjsMarker1368)"></path><rect id="SvgjsRect1370" width="26" height="16" x="336" y="155" fill="#ffffff"></rect><text id="SvgjsText1371" font-family="微软雅黑" text-anchor="middle" font-size="13px" width="26px" fill="#323232" font-weight="400" align="top" anchor="middle" family="微软雅黑" size="13px" weight="400" font-style="" opacity="1" y="153.05" transform="rotate(0)"><tspan id="SvgjsTspan1372" dy="16" x="349"><tspan id="SvgjsTspan1373" style="text-decoration:;">轮询</tspan></tspan></text></g><g id="SvgjsG1374"><path id="SvgjsPath1375" d="M167.5 304L167.5 326.5L167.5 326.5L167.5 349" stroke="#323232" stroke-width="2" fill="none" marker-end="url(#SvgjsMarker1376)"></path><rect id="SvgjsRect1378" width="26" height="16" x="154.5" y="318.5" fill="#ffffff"></rect><text id="SvgjsText1379" font-family="微软雅黑" text-anchor="middle" font-size="13px" width="26px" fill="#323232" font-weight="400" align="top" anchor="middle" family="微软雅黑" size="13px" weight="400" font-style="" opacity="1" y="316.55" transform="rotate(0)"><tspan id="SvgjsTspan1380" dy="16" x="167.5"><tspan id="SvgjsTspan1381" style="text-decoration:;">立即</tspan></tspan></text></g><g id="SvgjsG1382" transform="translate(117.5,349)"><path id="SvgjsPath1383" d="M 0 0L 100 0L 100 41L 0 41Z" stroke="rgba(50,50,50,1)" stroke-width="2" fill-opacity="1" fill="#ffffff"></path><g id="SvgjsG1384"><text id="SvgjsText1385" font-family="微软雅黑" text-anchor="middle" font-size="13px" width="80px" fill="#323232" font-weight="400" align="middle" anchor="middle" family="微软雅黑" size="13px" weight="400" font-style="" opacity="1" y="10.55" transform="rotate(0)"><tspan id="SvgjsTspan1386" dy="16" x="50"><tspan id="SvgjsTspan1387" style="text-decoration:;">发起请求</tspan></tspan></text></g></g><g id="SvgjsG1388" transform="translate(478,353.5)"><path id="SvgjsPath1389" d="M 0 0L 105 0L 105 32L 0 32Z" stroke="rgba(50,50,50,1)" stroke-width="2" fill-opacity="1" fill="#ffffff"></path><g id="SvgjsG1390"><text id="SvgjsText1391" font-family="微软雅黑" text-anchor="middle" font-size="13px" width="85px" fill="#323232" font-weight="400" align="middle" anchor="middle" family="微软雅黑" size="13px" weight="400" font-style="" opacity="1" y="6.05" transform="rotate(0)"><tspan id="SvgjsTspan1392" dy="16" x="52.5"><tspan id="SvgjsTspan1393" style="text-decoration:;">处理</tspan></tspan></text></g></g><g id="SvgjsG1394"><path id="SvgjsPath1395" d="M217.5 369.5L347.75 369.5L347.75 369.5L478 369.5" stroke="#323232" stroke-width="2" fill="none" marker-end="url(#SvgjsMarker1396)"></path><rect id="SvgjsRect1398" width="26" height="16" x="334.75" y="361.5" fill="#ffffff"></rect><text id="SvgjsText1399" font-family="微软雅黑" text-anchor="middle" font-size="13px" width="26px" fill="#323232" font-weight="400" align="top" anchor="middle" family="微软雅黑" size="13px" weight="400" font-style="" opacity="1" y="359.55" transform="rotate(0)"><tspan id="SvgjsTspan1400" dy="16" x="347.75"><tspan id="SvgjsTspan1401" style="text-decoration:;">轮询</tspan></tspan></text></g><g id="SvgjsG1402" transform="translate(115,495.5)"><path id="SvgjsPath1403" d="M 0 0L 105 0L 105 32L 0 32Z" stroke="rgba(50,50,50,1)" stroke-width="2" fill-opacity="1" fill="#ffffff"></path><g id="SvgjsG1404"><text id="SvgjsText1405" font-family="微软雅黑" text-anchor="middle" font-size="13px" width="85px" fill="#323232" font-weight="400" align="middle" anchor="middle" family="微软雅黑" size="13px" weight="400" font-style="" opacity="1" y="6.05" transform="rotate(0)"><tspan id="SvgjsTspan1406" dy="16" x="52.5"><tspan id="SvgjsTspan1407" style="text-decoration:;">得到结果</tspan></tspan></text></g></g><g id="SvgjsG1408" transform="translate(816,495.5)"><path id="SvgjsPath1409" d="M 0 0L 105 0L 105 32L 0 32Z" stroke="rgba(50,50,50,1)" stroke-width="2" fill-opacity="1" fill="#ffffff"></path><g id="SvgjsG1410"><text id="SvgjsText1411" font-family="微软雅黑" text-anchor="middle" font-size="13px" width="85px" fill="#323232" font-weight="400" align="middle" anchor="middle" family="微软雅黑" size="13px" weight="400" font-style="" opacity="1" y="6.05" transform="rotate(0)"><tspan id="SvgjsTspan1412" dy="16" x="52.5"><tspan id="SvgjsTspan1413" style="text-decoration:;">业务处理完毕</tspan></tspan></text></g></g><g id="SvgjsG1414" transform="translate(431.5,490)"><path id="SvgjsPath1415" d="M 0 0L 198 0L 198 43L 0 43Z" stroke="rgba(50,50,50,1)" stroke-width="2" fill-opacity="1" fill="#ffffff"></path><g id="SvgjsG1416"><text id="SvgjsText1417" font-family="微软雅黑" text-anchor="middle" font-size="13px" width="178px" fill="#323232" font-weight="400" align="middle" anchor="middle" family="微软雅黑" size="13px" weight="400" font-style="" opacity="1" y="11.55" transform="rotate(0)"><tspan id="SvgjsTspan1418" dy="16" x="99"><tspan id="SvgjsTspan1419" style="text-decoration:;">请求立即返回</tspan></tspan></text></g></g><g id="SvgjsG1420"><path id="SvgjsPath1421" d="M816 511.5L722.75 511.5L722.75 511.5L629.5 511.5" stroke="#323232" stroke-width="2" fill="none" marker-end="url(#SvgjsMarker1422)"></path><rect id="SvgjsRect1424" width="78" height="16" x="683.75" y="503.5" fill="#ffffff"></rect><text id="SvgjsText1425" font-family="微软雅黑" text-anchor="middle" font-size="13px" width="78px" fill="#323232" font-weight="400" align="top" anchor="middle" family="微软雅黑" size="13px" weight="400" font-style="" opacity="1" y="501.55" transform="rotate(0)"><tspan id="SvgjsTspan1426" dy="16" x="722.75"><tspan id="SvgjsTspan1427" style="text-decoration:;">更新业务状态</tspan></tspan></text></g><g id="SvgjsG1428" transform="translate(431.5,272)"><path id="SvgjsPath1429" d="M 0 0L 198 0L 198 32L 0 32Z" stroke="rgba(50,50,50,1)" stroke-width="2" fill-opacity="1" fill="#ffffff"></path><g id="SvgjsG1430"><text id="SvgjsText1431" font-family="微软雅黑" text-anchor="middle" font-size="13px" width="178px" fill="#323232" font-weight="400" align="middle" anchor="middle" family="微软雅黑" size="13px" weight="400" font-style="" opacity="1" y="6.05" transform="rotate(0)"><tspan id="SvgjsTspan1432" dy="16" x="99"><tspan id="SvgjsTspan1433" style="text-decoration:;">经过 T 时间后返回超时</tspan></tspan></text></g></g><g id="SvgjsG1434"><path id="SvgjsPath1435" d="M530.5 179L530.5 225.5L530.5 225.5L530.5 272" stroke="#323232" stroke-width="2" fill="none" marker-end="url(#SvgjsMarker1436)"></path><rect id="SvgjsRect1438" width="104" height="16" x="478.5" y="217.5" fill="#ffffff"></rect><text id="SvgjsText1439" font-family="微软雅黑" text-anchor="middle" font-size="13px" width="104px" fill="#323232" font-weight="400" align="top" anchor="middle" family="微软雅黑" size="13px" weight="400" font-style="" opacity="1" y="215.55" transform="rotate(0)"><tspan id="SvgjsTspan1440" dy="16" x="530.5"><tspan id="SvgjsTspan1441" style="text-decoration:;">请求挂起等待结果</tspan></tspan></text></g><g id="SvgjsG1442"><path id="SvgjsPath1443" d="M431.5 288L325.75 288L325.75 288L220 288" stroke="#323232" stroke-width="2" fill="none" marker-end="url(#SvgjsMarker1444)"></path><rect id="SvgjsRect1446" width="52" height="16" x="299.75" y="280" fill="#ffffff"></rect><text id="SvgjsText1447" font-family="微软雅黑" text-anchor="middle" font-size="13px" width="52px" fill="#323232" font-weight="400" align="top" anchor="middle" family="微软雅黑" size="13px" weight="400" font-style="" opacity="1" y="278.05" transform="rotate(0)"><tspan id="SvgjsTspan1448" dy="16" x="325.75"><tspan id="SvgjsTspan1449" style="text-decoration:;">超时返回</tspan></tspan></text></g><g id="SvgjsG1450"><path id="SvgjsPath1451" d="M530.5 385.5L530.5 437.75L530.5 437.75L530.5 490" stroke="#323232" stroke-width="2" fill="none" marker-end="url(#SvgjsMarker1452)"></path><rect id="SvgjsRect1454" width="104" height="16" x="478.5" y="429.75" fill="#ffffff"></rect><text id="SvgjsText1455" font-family="微软雅黑" text-anchor="middle" font-size="13px" width="104px" fill="#323232" font-weight="400" align="top" anchor="middle" family="微软雅黑" size="13px" weight="400" font-style="" opacity="1" y="427.8" transform="rotate(0)"><tspan id="SvgjsTspan1456" dy="16" x="530.5"><tspan id="SvgjsTspan1457" style="text-decoration:;">请求挂起等待结果</tspan></tspan></text></g><g id="SvgjsG1458"><path id="SvgjsPath1459" d="M431.5 511.5L325.75 511.5L325.75 511.5L220 511.5" stroke="#323232" stroke-width="2" fill="none" marker-end="url(#SvgjsMarker1460)"></path><rect id="SvgjsRect1462" width="52" height="16" x="299.75" y="503.5" fill="#ffffff"></rect><text id="SvgjsText1463" font-family="微软雅黑" text-anchor="middle" font-size="13px" width="52px" fill="#323232" font-weight="400" align="top" anchor="middle" family="微软雅黑" size="13px" weight="400" font-style="" opacity="1" y="501.55" transform="rotate(0)"><tspan id="SvgjsTspan1464" dy="16" x="325.75"><tspan id="SvgjsTspan1465" style="text-decoration:;">业务返回</tspan></tspan></text></g></svg>