<svg id="SvgjsSvg1353" width="1036" height="972" xmlns="http://www.w3.org/2000/svg" version="1.1" xmlns:xlink="http://www.w3.org/1999/xlink" xmlns:svgjs="http://svgjs.com/svgjs"><defs id="SvgjsDefs1354"><marker id="SvgjsMarker1408" markerWidth="16" markerHeight="12" refX="16" refY="6" viewBox="0 0 16 12" orient="auto" markerUnits="userSpaceOnUse" stroke-dasharray="0,0"><path id="SvgjsPath1409" d="M0,2 L14,6 L0,11 L0,2" fill="#323232" stroke="#323232" stroke-width="2"></path></marker><marker id="SvgjsMarker1416" markerWidth="16" markerHeight="12" refX="16" refY="6" viewBox="0 0 16 12" orient="auto" markerUnits="userSpaceOnUse" stroke-dasharray="0,0"><path id="SvgjsPath1417" d="M0,2 L14,6 L0,11 L0,2" fill="#323232" stroke="#323232" stroke-width="2"></path></marker><marker id="SvgjsMarker1424" markerWidth="16" markerHeight="12" refX="16" refY="6" viewBox="0 0 16 12" orient="auto" markerUnits="userSpaceOnUse" stroke-dasharray="0,0"><path id="SvgjsPath1425" d="M0,2 L14,6 L0,11 L0,2" fill="#323232" stroke="#323232" stroke-width="2"></path></marker><marker id="SvgjsMarker1444" markerWidth="16" markerHeight="12" refX="16" refY="6" viewBox="0 0 16 12" orient="auto" markerUnits="userSpaceOnUse" stroke-dasharray="0,0"><path id="SvgjsPath1445" d="M0,2 L14,6 L0,11 L0,2" fill="#323232" stroke="#323232" stroke-width="2"></path></marker><marker id="SvgjsMarker1458" markerWidth="16" markerHeight="12" refX="16" refY="6" viewBox="0 0 16 12" orient="auto" markerUnits="userSpaceOnUse" stroke-dasharray="0,0"><path id="SvgjsPath1459" d="M0,2 L14,6 L0,11 L0,2" fill="#323232" stroke="#323232" stroke-width="2"></path></marker><marker id="SvgjsMarker1466" markerWidth="16" markerHeight="12" refX="16" refY="6" viewBox="0 0 16 12" orient="auto" markerUnits="userSpaceOnUse" stroke-dasharray="0,0"><path id="SvgjsPath1467" d="M0,2 L14,6 L0,11 L0,2" fill="#323232" stroke="#323232" stroke-width="2"></path></marker><marker id="SvgjsMarker1492" markerWidth="16" markerHeight="12" refX="16" refY="6" viewBox="0 0 16 12" orient="auto" markerUnits="userSpaceOnUse" stroke-dasharray="0,0"><path id="SvgjsPath1493" d="M0,2 L14,6 L0,11 L0,2" fill="#323232" stroke="#323232" stroke-width="2"></path></marker><marker id="SvgjsMarker1500" markerWidth="16" markerHeight="12" refX="16" refY="6" viewBox="0 0 16 12" orient="auto" markerUnits="userSpaceOnUse" stroke-dasharray="0,0"><path id="SvgjsPath1501" d="M0,2 L14,6 L0,11 L0,2" fill="#323232" stroke="#323232" stroke-width="2"></path></marker><marker id="SvgjsMarker1520" markerWidth="16" markerHeight="12" refX="16" refY="6" viewBox="0 0 16 12" orient="auto" markerUnits="userSpaceOnUse" stroke-dasharray="0,0"><path id="SvgjsPath1521" d="M0,2 L14,6 L0,11 L0,2" fill="#323232" stroke="#323232" stroke-width="2"></path></marker></defs><g id="SvgjsG1355" transform="translate(726,25)"><path id="SvgjsPath1356" d="M 0 4Q 0 0 4 0L 281 0Q 285 0 285 4L 285 918Q 285 922 281 922L 4 922Q 0 922 0 918Z" stroke="rgba(50,50,50,1)" stroke-width="2" fill-opacity="1" fill="#ffffff"></path><g id="SvgjsG1357"><text id="SvgjsText1358" font-family="微软雅黑" text-anchor="middle" font-size="13px" width="275px" fill="#323232" font-weight="400" align="middle" anchor="middle" family="微软雅黑" size="13px" weight="400" font-style="" opacity="1" y="56.907142857142844" transform="rotate(0)"></text></g></g><g id="SvgjsG1359" transform="translate(388,25)"><path id="SvgjsPath1360" d="M 0 4Q 0 0 4 0L 281 0Q 285 0 285 4L 285 918Q 285 922 281 922L 4 922Q 0 922 0 918Z" stroke="rgba(50,50,50,1)" stroke-width="2" fill-opacity="1" fill="#ffffff"></path><g id="SvgjsG1361"><text id="SvgjsText1362" font-family="微软雅黑" text-anchor="middle" font-size="13px" width="275px" fill="#323232" font-weight="400" align="middle" anchor="middle" family="微软雅黑" size="13px" weight="400" font-style="" opacity="1" y="56.907142857142844" transform="rotate(0)"></text></g></g><g id="SvgjsG1363" transform="translate(25,25)"><path id="SvgjsPath1364" d="M 0 4Q 0 0 4 0L 281 0Q 285 0 285 4L 285 918Q 285 922 281 922L 4 922Q 0 922 0 918Z" stroke="rgba(50,50,50,1)" stroke-width="2" fill-opacity="1" fill="#ffffff"></path><g id="SvgjsG1365"><text id="SvgjsText1366" font-family="微软雅黑" text-anchor="middle" font-size="13px" width="275px" fill="#323232" font-weight="400" align="middle" anchor="middle" family="微软雅黑" size="13px" weight="400" font-style="" opacity="1" y="56.907142857142844" transform="rotate(0)"></text></g></g><g id="SvgjsG1367" transform="translate(68.5,57)"><path id="SvgjsPath1368" d="M 99 30L 99 843" stroke-dasharray="3,4" stroke="rgba(50,50,50,1)" stroke-width="2" fill="none"></path><path id="SvgjsPath1369" d="M 0 0L 198 0L 198 30L 0 30Z" stroke="rgba(50,50,50,1)" stroke-width="2" fill-opacity="1" fill="#ffffff"></path><g id="SvgjsG1370"><text id="SvgjsText1371" font-family="微软雅黑" text-anchor="middle" font-size="13px" width="178px" fill="#323232" font-weight="400" align="middle" anchor="middle" family="微软雅黑" size="13px" weight="400" font-style="" opacity="1" y="5.05" transform="rotate(0)"><tspan id="SvgjsTspan1372" dy="16" x="99"><tspan id="SvgjsTspan1373" style="text-decoration:;">浏览器</tspan></tspan></text></g></g><g id="SvgjsG1374" transform="translate(431.5,61)"><path id="SvgjsPath1375" d="M 99 30L 99 839" stroke-dasharray="3,4" stroke="rgba(50,50,50,1)" stroke-width="2" fill="none"></path><path id="SvgjsPath1376" d="M 0 0L 198 0L 198 30L 0 30Z" stroke="rgba(50,50,50,1)" stroke-width="2" fill-opacity="1" fill="#ffffff"></path><g id="SvgjsG1377"><text id="SvgjsText1378" font-family="微软雅黑" text-anchor="middle" font-size="13px" width="178px" fill="#323232" font-weight="400" align="middle" anchor="middle" family="微软雅黑" size="13px" weight="400" font-style="" opacity="1" y="5.05" transform="rotate(0)"><tspan id="SvgjsTspan1379" dy="16" x="99"><tspan id="SvgjsTspan1380" style="text-decoration:;">服务器</tspan></tspan></text></g></g><g id="SvgjsG1381" transform="translate(769.5,61)"><path id="SvgjsPath1382" d="M 99 30L 99 839" stroke-dasharray="3,4" stroke="rgba(50,50,50,1)" stroke-width="2" fill="none"></path><path id="SvgjsPath1383" d="M 0 0L 198 0L 198 30L 0 30Z" stroke="rgba(50,50,50,1)" stroke-width="2" fill-opacity="1" fill="#ffffff"></path><g id="SvgjsG1384"><text id="SvgjsText1385" font-family="微软雅黑" text-anchor="middle" font-size="13px" width="178px" fill="#323232" font-weight="400" align="middle" anchor="middle" family="微软雅黑" size="13px" weight="400" font-style="" opacity="1" y="5.05" transform="rotate(0)"><tspan id="SvgjsTspan1386" dy="16" x="99"><tspan id="SvgjsTspan1387" style="text-decoration:;">业务逻辑</tspan></tspan></text></g></g><g id="SvgjsG1388" transform="translate(115,147)"><path id="SvgjsPath1389" d="M 0 0L 105 0L 105 32L 0 32Z" stroke="rgba(50,50,50,1)" stroke-width="2" fill-opacity="1" fill="#ffffff"></path><g id="SvgjsG1390"><text id="SvgjsText1391" font-family="微软雅黑" text-anchor="middle" font-size="13px" width="85px" fill="#323232" font-weight="400" align="middle" anchor="middle" family="微软雅黑" size="13px" weight="400" font-style="" opacity="1" y="6.05" transform="rotate(0)"><tspan id="SvgjsTspan1392" dy="16" x="52.5"><tspan id="SvgjsTspan1393" style="text-decoration:;">发起请求</tspan></tspan></text></g></g><g id="SvgjsG1394" transform="translate(478,147)"><path id="SvgjsPath1395" d="M 0 0L 105 0L 105 32L 0 32Z" stroke="rgba(50,50,50,1)" stroke-width="2" fill-opacity="1" fill="#ffffff"></path><g id="SvgjsG1396"><text id="SvgjsText1397" font-family="微软雅黑" text-anchor="middle" font-size="13px" width="85px" fill="#323232" font-weight="400" align="middle" anchor="middle" family="微软雅黑" size="13px" weight="400" font-style="" opacity="1" y="6.05" transform="rotate(0)"><tspan id="SvgjsTspan1398" dy="16" x="52.5"><tspan id="SvgjsTspan1399" style="text-decoration:;">处理</tspan></tspan></text></g></g><g id="SvgjsG1400" transform="translate(115,213)"><path id="SvgjsPath1401" d="M 0 0L 105 0L 105 32L 0 32Z" stroke="rgba(50,50,50,1)" stroke-width="2" fill-opacity="1" fill="#ffffff"></path><g id="SvgjsG1402"><text id="SvgjsText1403" font-family="微软雅黑" text-anchor="middle" font-size="13px" width="85px" fill="#323232" font-weight="400" align="middle" anchor="middle" family="微软雅黑" size="13px" weight="400" font-style="" opacity="1" y="6.05" transform="rotate(0)"><tspan id="SvgjsTspan1404" dy="16" x="52.5"><tspan id="SvgjsTspan1405" style="text-decoration:;">得到结果</tspan></tspan></text></g></g><g id="SvgjsG1406"><path id="SvgjsPath1407" d="M220 163L349 163L349 163L478 163" stroke="#323232" stroke-width="2" fill="none" marker-end="url(#SvgjsMarker1408)"></path><rect id="SvgjsRect1410" width="26" height="16" x="336" y="155" fill="#ffffff"></rect><text id="SvgjsText1411" font-family="微软雅黑" text-anchor="middle" font-size="13px" width="26px" fill="#323232" font-weight="400" align="top" anchor="middle" family="微软雅黑" size="13px" weight="400" font-style="" opacity="1" y="153.05" transform="rotate(0)"><tspan id="SvgjsTspan1412" dy="16" x="349"><tspan id="SvgjsTspan1413" style="text-decoration:;">轮询</tspan></tspan></text></g><g id="SvgjsG1414"><path id="SvgjsPath1415" d="M530.5 179L530.5 229L220 229" stroke="#323232" stroke-width="2" fill="none" marker-end="url(#SvgjsMarker1416)"></path><rect id="SvgjsRect1418" width="91" height="16" x="354.75" y="221" fill="#ffffff"></rect><text id="SvgjsText1419" font-family="微软雅黑" text-anchor="middle" font-size="13px" width="91px" fill="#323232" font-weight="400" align="top" anchor="middle" family="微软雅黑" size="13px" weight="400" font-style="" opacity="1" y="219.05" transform="rotate(0)"><tspan id="SvgjsTspan1420" dy="16" x="400.25"><tspan id="SvgjsTspan1421" style="text-decoration:;">返回处理前状态</tspan></tspan></text></g><g id="SvgjsG1422"><path id="SvgjsPath1423" d="M167.5 245L167.5 297L167.5 297L167.5 349" stroke="#323232" stroke-width="2" fill="none" marker-end="url(#SvgjsMarker1424)"></path><rect id="SvgjsRect1426" width="50" height="16" x="142.5" y="289" fill="#ffffff"></rect><text id="SvgjsText1427" font-family="微软雅黑" text-anchor="middle" font-size="13px" width="50px" fill="#323232" font-weight="400" align="top" anchor="middle" family="微软雅黑" size="13px" weight="400" font-style="" opacity="1" y="287.05" transform="rotate(0)"><tspan id="SvgjsTspan1428" dy="16" x="167.5"><tspan id="SvgjsTspan1429" style="text-decoration:;">T 时间后</tspan></tspan></text></g><g id="SvgjsG1430" transform="translate(117.5,349)"><path id="SvgjsPath1431" d="M 0 0L 100 0L 100 41L 0 41Z" stroke="rgba(50,50,50,1)" stroke-width="2" fill-opacity="1" fill="#ffffff"></path><g id="SvgjsG1432"><text id="SvgjsText1433" font-family="微软雅黑" text-anchor="middle" font-size="13px" width="80px" fill="#323232" font-weight="400" align="middle" anchor="middle" family="微软雅黑" size="13px" weight="400" font-style="" opacity="1" y="10.55" transform="rotate(0)"><tspan id="SvgjsTspan1434" dy="16" x="50"><tspan id="SvgjsTspan1435" style="text-decoration:;">发起请求</tspan></tspan></text></g></g><g id="SvgjsG1436" transform="translate(478,353.5)"><path id="SvgjsPath1437" d="M 0 0L 105 0L 105 32L 0 32Z" stroke="rgba(50,50,50,1)" stroke-width="2" fill-opacity="1" fill="#ffffff"></path><g id="SvgjsG1438"><text id="SvgjsText1439" font-family="微软雅黑" text-anchor="middle" font-size="13px" width="85px" fill="#323232" font-weight="400" align="middle" anchor="middle" family="微软雅黑" size="13px" weight="400" font-style="" opacity="1" y="6.05" transform="rotate(0)"><tspan id="SvgjsTspan1440" dy="16" x="52.5"><tspan id="SvgjsTspan1441" style="text-decoration:;">处理</tspan></tspan></text></g></g><g id="SvgjsG1442"><path id="SvgjsPath1443" d="M217.5 369.5L347.75 369.5L347.75 369.5L478 369.5" stroke="#323232" stroke-width="2" fill="none" marker-end="url(#SvgjsMarker1444)"></path><rect id="SvgjsRect1446" width="26" height="16" x="334.75" y="361.5" fill="#ffffff"></rect><text id="SvgjsText1447" font-family="微软雅黑" text-anchor="middle" font-size="13px" width="26px" fill="#323232" font-weight="400" align="top" anchor="middle" family="微软雅黑" size="13px" weight="400" font-style="" opacity="1" y="359.55" transform="rotate(0)"><tspan id="SvgjsTspan1448" dy="16" x="347.75"><tspan id="SvgjsTspan1449" style="text-decoration:;">轮询</tspan></tspan></text></g><g id="SvgjsG1450" transform="translate(115,430)"><path id="SvgjsPath1451" d="M 0 0L 105 0L 105 32L 0 32Z" stroke="rgba(50,50,50,1)" stroke-width="2" fill-opacity="1" fill="#ffffff"></path><g id="SvgjsG1452"><text id="SvgjsText1453" font-family="微软雅黑" text-anchor="middle" font-size="13px" width="85px" fill="#323232" font-weight="400" align="middle" anchor="middle" family="微软雅黑" size="13px" weight="400" font-style="" opacity="1" y="6.05" transform="rotate(0)"><tspan id="SvgjsTspan1454" dy="16" x="52.5"><tspan id="SvgjsTspan1455" style="text-decoration:;">得到结果</tspan></tspan></text></g></g><g id="SvgjsG1456"><path id="SvgjsPath1457" d="M530.5 385.5L530.5 446L220 446" stroke="#323232" stroke-width="2" fill="none" marker-end="url(#SvgjsMarker1458)"></path><rect id="SvgjsRect1460" width="91" height="16" x="360" y="438" fill="#ffffff"></rect><text id="SvgjsText1461" font-family="微软雅黑" text-anchor="middle" font-size="13px" width="91px" fill="#323232" font-weight="400" align="top" anchor="middle" family="微软雅黑" size="13px" weight="400" font-style="" opacity="1" y="436.05" transform="rotate(0)"><tspan id="SvgjsTspan1462" dy="16" x="405.5"><tspan id="SvgjsTspan1463" style="text-decoration:;">返回处理前状态</tspan></tspan></text></g><g id="SvgjsG1464"><path id="SvgjsPath1465" d="M167.5 462L167.5 526L167.5 526L167.5 590" stroke="#323232" stroke-width="2" fill="none" marker-end="url(#SvgjsMarker1466)"></path><rect id="SvgjsRect1468" width="46" height="16" x="144.5" y="518" fill="#ffffff"></rect><text id="SvgjsText1469" font-family="微软雅黑" text-anchor="middle" font-size="13px" width="46px" fill="#323232" font-weight="400" align="top" anchor="middle" family="微软雅黑" size="13px" weight="400" font-style="" opacity="1" y="516.05" transform="rotate(0)"><tspan id="SvgjsTspan1470" dy="16" x="167.5"><tspan id="SvgjsTspan1471" style="text-decoration:;">T时间后</tspan></tspan></text></g><g id="SvgjsG1472" transform="translate(117.5,590)"><path id="SvgjsPath1473" d="M 0 0L 100 0L 100 32L 0 32Z" stroke="rgba(50,50,50,1)" stroke-width="2" fill-opacity="1" fill="#ffffff"></path><g id="SvgjsG1474"><text id="SvgjsText1475" font-family="微软雅黑" text-anchor="middle" font-size="13px" width="80px" fill="#323232" font-weight="400" align="middle" anchor="middle" family="微软雅黑" size="13px" weight="400" font-style="" opacity="1" y="6.05" transform="rotate(0)"><tspan id="SvgjsTspan1476" dy="16" x="50"><tspan id="SvgjsTspan1477" style="text-decoration:;">发起请求</tspan></tspan></text></g></g><g id="SvgjsG1478" transform="translate(478,590)"><path id="SvgjsPath1479" d="M 0 0L 105 0L 105 32L 0 32Z" stroke="rgba(50,50,50,1)" stroke-width="2" fill-opacity="1" fill="#ffffff"></path><g id="SvgjsG1480"><text id="SvgjsText1481" font-family="微软雅黑" text-anchor="middle" font-size="13px" width="85px" fill="#323232" font-weight="400" align="middle" anchor="middle" family="微软雅黑" size="13px" weight="400" font-style="" opacity="1" y="6.05" transform="rotate(0)"><tspan id="SvgjsTspan1482" dy="16" x="52.5"><tspan id="SvgjsTspan1483" style="text-decoration:;">处理</tspan></tspan></text></g></g><g id="SvgjsG1484" transform="translate(115,675)"><path id="SvgjsPath1485" d="M 0 0L 105 0L 105 32L 0 32Z" stroke="rgba(50,50,50,1)" stroke-width="2" fill-opacity="1" fill="#ffffff"></path><g id="SvgjsG1486"><text id="SvgjsText1487" font-family="微软雅黑" text-anchor="middle" font-size="13px" width="85px" fill="#323232" font-weight="400" align="middle" anchor="middle" family="微软雅黑" size="13px" weight="400" font-style="" opacity="1" y="6.05" transform="rotate(0)"><tspan id="SvgjsTspan1488" dy="16" x="52.5"><tspan id="SvgjsTspan1489" style="text-decoration:;">得到结果</tspan></tspan></text></g></g><g id="SvgjsG1490"><path id="SvgjsPath1491" d="M217.5 606L347.75 606L347.75 606L478 606" stroke="#323232" stroke-width="2" fill="none" marker-end="url(#SvgjsMarker1492)"></path><rect id="SvgjsRect1494" width="26" height="16" x="334.75" y="598" fill="#ffffff"></rect><text id="SvgjsText1495" font-family="微软雅黑" text-anchor="middle" font-size="13px" width="26px" fill="#323232" font-weight="400" align="top" anchor="middle" family="微软雅黑" size="13px" weight="400" font-style="" opacity="1" y="596.05" transform="rotate(0)"><tspan id="SvgjsTspan1496" dy="16" x="347.75"><tspan id="SvgjsTspan1497" style="text-decoration:;">轮询</tspan></tspan></text></g><g id="SvgjsG1498"><path id="SvgjsPath1499" d="M530.5 622L530.5 691L220 691" stroke="#323232" stroke-width="2" fill="none" marker-end="url(#SvgjsMarker1500)"></path><rect id="SvgjsRect1502" width="104" height="16" x="357.75" y="683" fill="#ffffff"></rect><text id="SvgjsText1503" font-family="微软雅黑" text-anchor="middle" font-size="13px" width="104px" fill="#323232" font-weight="400" align="top" anchor="middle" family="微软雅黑" size="13px" weight="400" font-style="" opacity="1" y="681.05" transform="rotate(0)"><tspan id="SvgjsTspan1504" dy="16" x="409.75"><tspan id="SvgjsTspan1505" style="text-decoration:;">返回处理后的状态</tspan></tspan></text></g><g id="SvgjsG1506" transform="translate(816,495.5)"><path id="SvgjsPath1507" d="M 0 0L 105 0L 105 32L 0 32Z" stroke="rgba(50,50,50,1)" stroke-width="2" fill-opacity="1" fill="#ffffff"></path><g id="SvgjsG1508"><text id="SvgjsText1509" font-family="微软雅黑" text-anchor="middle" font-size="13px" width="85px" fill="#323232" font-weight="400" align="middle" anchor="middle" family="微软雅黑" size="13px" weight="400" font-style="" opacity="1" y="6.05" transform="rotate(0)"><tspan id="SvgjsTspan1510" dy="16" x="52.5"><tspan id="SvgjsTspan1511" style="text-decoration:;">业务处理完毕</tspan></tspan></text></g></g><g id="SvgjsG1512" transform="translate(478,495.5)"><path id="SvgjsPath1513" d="M 0 0L 105 0L 105 32L 0 32Z" stroke="rgba(50,50,50,1)" stroke-width="2" fill-opacity="1" fill="#ffffff"></path><g id="SvgjsG1514"><text id="SvgjsText1515" font-family="微软雅黑" text-anchor="middle" font-size="13px" width="85px" fill="#323232" font-weight="400" align="middle" anchor="middle" family="微软雅黑" size="13px" weight="400" font-style="" opacity="1" y="6.05" transform="rotate(0)"><tspan id="SvgjsTspan1516" dy="16" x="52.5"><tspan id="SvgjsTspan1517" style="text-decoration:;">业务返回</tspan></tspan></text></g></g><g id="SvgjsG1518"><path id="SvgjsPath1519" d="M816 511.5L699.5 511.5L699.5 511.5L583 511.5" stroke="#323232" stroke-width="2" fill="none" marker-end="url(#SvgjsMarker1520)"></path><rect id="SvgjsRect1522" width="78" height="16" x="660.5" y="503.5" fill="#ffffff"></rect><text id="SvgjsText1523" font-family="微软雅黑" text-anchor="middle" font-size="13px" width="78px" fill="#323232" font-weight="400" align="top" anchor="middle" family="微软雅黑" size="13px" weight="400" font-style="" opacity="1" y="501.55" transform="rotate(0)"><tspan id="SvgjsTspan1524" dy="16" x="699.5"><tspan id="SvgjsTspan1525" style="text-decoration:;">更新业务状态</tspan></tspan></text></g></svg>