<svg id="SvgjsSvg1006" width="1042" height="991" xmlns="http://www.w3.org/2000/svg" version="1.1" xmlns:xlink="http://www.w3.org/1999/xlink" xmlns:svgjs="http://svgjs.com/svgjs"><defs id="SvgjsDefs1007"><marker id="SvgjsMarker1055" markerWidth="16" markerHeight="12" refX="16" refY="6" viewBox="0 0 16 12" orient="auto" markerUnits="userSpaceOnUse" stroke-dasharray="0,0"><path id="SvgjsPath1056" d="M0,2 L14,6 L0,11 L0,2" fill="#323232" stroke="#323232" stroke-width="2"></path></marker><marker id="SvgjsMarker1069" markerWidth="16" markerHeight="12" refX="16" refY="6" viewBox="0 0 16 12" orient="auto" markerUnits="userSpaceOnUse" stroke-dasharray="0,0"><path id="SvgjsPath1070" d="M0,2 L14,6 L0,11 L0,2" fill="#323232" stroke="#323232" stroke-width="2"></path></marker><marker id="SvgjsMarker1083" markerWidth="16" markerHeight="12" refX="16" refY="6" viewBox="0 0 16 12" orient="auto" markerUnits="userSpaceOnUse" stroke-dasharray="0,0"><path id="SvgjsPath1084" d="M0,2 L14,6 L0,11 L0,2" fill="#323232" stroke="#323232" stroke-width="2"></path></marker><marker id="SvgjsMarker1097" markerWidth="16" markerHeight="12" refX="16" refY="6" viewBox="0 0 16 12" orient="auto" markerUnits="userSpaceOnUse" stroke-dasharray="0,0"><path id="SvgjsPath1098" d="M0,2 L14,6 L0,11 L0,2" fill="#323232" stroke="#323232" stroke-width="2"></path></marker></defs><g id="SvgjsG1008" transform="translate(25,25)"><path id="SvgjsPath1009" d="M 0 4Q 0 0 4 0L 252 0Q 256 0 256 4L 256 937Q 256 941 252 941L 4 941Q 0 941 0 937Z" stroke="rgba(50,50,50,1)" stroke-width="2" fill-opacity="1" fill="#ffffff"></path><g id="SvgjsG1010"><text id="SvgjsText1011" font-family="微软雅黑" text-anchor="middle" font-size="13px" width="246px" fill="#323232" font-weight="400" align="middle" anchor="middle" family="微软雅黑" size="13px" weight="400" font-style="" opacity="1" y="58.264285714285705" transform="rotate(0)"></text></g></g><g id="SvgjsG1012" transform="translate(403,25)"><path id="SvgjsPath1013" d="M 0 4Q 0 0 4 0L 252 0Q 256 0 256 4L 256 937Q 256 941 252 941L 4 941Q 0 941 0 937Z" stroke="rgba(50,50,50,1)" stroke-width="2" fill-opacity="1" fill="#ffffff"></path><g id="SvgjsG1014"><text id="SvgjsText1015" font-family="微软雅黑" text-anchor="middle" font-size="13px" width="246px" fill="#323232" font-weight="400" align="middle" anchor="middle" family="微软雅黑" size="13px" weight="400" font-style="" opacity="1" y="58.264285714285705" transform="rotate(0)"></text></g></g><g id="SvgjsG1016" transform="translate(761,25)"><path id="SvgjsPath1017" d="M 0 4Q 0 0 4 0L 252 0Q 256 0 256 4L 256 937Q 256 941 252 941L 4 941Q 0 941 0 937Z" stroke="rgba(50,50,50,1)" stroke-width="2" fill-opacity="1" fill="#ffffff"></path><g id="SvgjsG1018"><text id="SvgjsText1019" font-family="微软雅黑" text-anchor="middle" font-size="13px" width="246px" fill="#323232" font-weight="400" align="middle" anchor="middle" family="微软雅黑" size="13px" weight="400" font-style="" opacity="1" y="58.264285714285705" transform="rotate(0)"></text></g></g><g id="SvgjsG1020" transform="translate(90,53)"><path id="SvgjsPath1021" d="M 63 30L 63 897" stroke-dasharray="3,4" stroke="rgba(50,50,50,1)" stroke-width="2" fill="none"></path><path id="SvgjsPath1022" d="M 0 0L 126 0L 126 30L 0 30Z" stroke="rgba(50,50,50,1)" stroke-width="2" fill-opacity="1" fill="#ffffff"></path><g id="SvgjsG1023"><text id="SvgjsText1024" font-family="微软雅黑" text-anchor="middle" font-size="13px" width="106px" fill="#323232" font-weight="400" align="middle" anchor="middle" family="微软雅黑" size="13px" weight="400" font-style="" opacity="1" y="5.05" transform="rotate(0)"><tspan id="SvgjsTspan1025" dy="16" x="63"><tspan id="SvgjsTspan1026" style="text-decoration:;">webview</tspan></tspan></text></g></g><g id="SvgjsG1027" transform="translate(47.496597371119606,338.9573040409564)"><path id="SvgjsPath1028" d="M 0 0L 211.00680525776076 0L 211.00680525776076 68.08539191808737L 0 68.08539191808737Z" stroke="rgba(50,50,50,1)" stroke-width="2" fill-opacity="1" fill="#ffffff"></path><g id="SvgjsG1029"><text id="SvgjsText1030" font-family="微软雅黑" text-anchor="middle" font-size="13px" width="192px" fill="#323232" font-weight="400" align="middle" anchor="middle" family="微软雅黑" size="13px" weight="400" font-style="" opacity="1" y="24.092695959043684" transform="rotate(0)"><tspan id="SvgjsTspan1031" dy="16" x="106"><tspan id="SvgjsTspan1032" style="text-decoration:;">主动调用</tspan></tspan></text></g></g><g id="SvgjsG1033" transform="translate(468,53)"><path id="SvgjsPath1034" d="M 63 30L 63 897" stroke-dasharray="3,4" stroke="rgba(50,50,50,1)" stroke-width="2" fill="none"></path><path id="SvgjsPath1035" d="M 0 0L 126 0L 126 30L 0 30Z" stroke="rgba(50,50,50,1)" stroke-width="2" fill-opacity="1" fill="#ffffff"></path><g id="SvgjsG1036"><text id="SvgjsText1037" font-family="微软雅黑" text-anchor="middle" font-size="13px" width="106px" fill="#323232" font-weight="400" align="middle" anchor="middle" family="微软雅黑" size="13px" weight="400" font-style="" opacity="1" y="5.05" transform="rotate(0)"><tspan id="SvgjsTspan1038" dy="16" x="63"><tspan id="SvgjsTspan1039" style="text-decoration:;">Native</tspan></tspan></text></g></g><g id="SvgjsG1040" transform="translate(826,53)"><path id="SvgjsPath1041" d="M 63 30L 63 897" stroke-dasharray="3,4" stroke="rgba(50,50,50,1)" stroke-width="2" fill="none"></path><path id="SvgjsPath1042" d="M 0 0L 126 0L 126 30L 0 30Z" stroke="rgba(50,50,50,1)" stroke-width="2" fill-opacity="1" fill="#ffffff"></path><g id="SvgjsG1043"><text id="SvgjsText1044" font-family="微软雅黑" text-anchor="middle" font-size="13px" width="106px" fill="#323232" font-weight="400" align="middle" anchor="middle" family="微软雅黑" size="13px" weight="400" font-style="" opacity="1" y="5.05" transform="rotate(0)"><tspan id="SvgjsTspan1045" dy="16" x="63"><tspan id="SvgjsTspan1046" style="text-decoration:;">系统</tspan></tspan></text></g></g><g id="SvgjsG1047" transform="translate(425.4965973711196,133.9573040409564)"><path id="SvgjsPath1048" d="M 0 0L 211.00680525776076 0L 211.00680525776076 68.08539191808737L 0 68.08539191808737Z" stroke="rgba(50,50,50,1)" stroke-width="2" fill-opacity="1" fill="#ffffff"></path><g id="SvgjsG1049"><text id="SvgjsText1050" font-family="微软雅黑" text-anchor="middle" font-size="13px" width="192px" fill="#323232" font-weight="400" align="middle" anchor="middle" family="微软雅黑" size="13px" weight="400" font-style="" opacity="1" y="24.092695959043684" transform="rotate(0)"><tspan id="SvgjsTspan1051" dy="16" x="106"><tspan id="SvgjsTspan1052" style="text-decoration:;">初始化</tspan></tspan></text></g></g><g id="SvgjsG1053"><path id="SvgjsPath1054" d="M636.5034026288804 168.00000000000006L736.2517013144402 168.00000000000006L736.2517013144402 168.00000000000006L836 168.00000000000006" stroke="#323232" stroke-width="2" fill="none" marker-end="url(#SvgjsMarker1055)"></path><rect id="SvgjsRect1057" width="75" height="16" x="698.7517013144402" y="160.00000000000006" fill="#ffffff"></rect><text id="SvgjsText1058" font-family="微软雅黑" text-anchor="middle" font-size="13px" width="75px" fill="#323232" font-weight="400" align="top" anchor="middle" family="微软雅黑" size="13px" weight="400" font-style="" opacity="1" y="158.05000000000007" transform="rotate(0)"><tspan id="SvgjsTspan1059" dy="16" x="736.2517013144402"><tspan id="SvgjsTspan1060" style="text-decoration:;">注册Schema</tspan></tspan></text></g><g id="SvgjsG1061" transform="translate(836,144)"><path id="SvgjsPath1062" d="M 0 0L 106 0L 106 48.000000000000114L 0 48.000000000000114Z" stroke="rgba(50,50,50,1)" stroke-width="2" fill-opacity="1" fill="#ffffff"></path><g id="SvgjsG1063"><text id="SvgjsText1064" font-family="微软雅黑" text-anchor="middle" font-size="13px" width="86px" fill="#323232" font-weight="400" align="middle" anchor="middle" family="微软雅黑" size="13px" weight="400" font-style="" opacity="1" y="14.050000000000058" transform="rotate(0)"><tspan id="SvgjsTspan1065" dy="16" x="53"><tspan id="SvgjsTspan1066" style="text-decoration:;">协议</tspan></tspan></text></g></g><g id="SvgjsG1067"><path id="SvgjsPath1068" d="M258.5034026288804 373.00000000000006L369.7517013144402 373.00000000000006L369.7517013144402 373.00000000000006L481 373.00000000000006" stroke="#323232" stroke-width="2" fill="none" marker-end="url(#SvgjsMarker1069)"></path><rect id="SvgjsRect1071" width="66" height="16" x="336.7517013144402" y="365.00000000000006" fill="#ffffff"></rect><text id="SvgjsText1072" font-family="微软雅黑" text-anchor="middle" font-size="13px" width="66px" fill="#323232" font-weight="400" align="top" anchor="middle" family="微软雅黑" size="13px" weight="400" font-style="" opacity="1" y="363.05000000000007" transform="rotate(0)"><tspan id="SvgjsTspan1073" dy="16" x="369.7517013144402"><tspan id="SvgjsTspan1074" style="text-decoration:;">iframe调用</tspan></tspan></text></g><g id="SvgjsG1075" transform="translate(481,348)"><path id="SvgjsPath1076" d="M 0 0L 100 0L 100 50.000000000000114L 0 50.000000000000114Z" stroke="rgba(50,50,50,1)" stroke-width="2" fill-opacity="1" fill="#ffffff"></path><g id="SvgjsG1077"><text id="SvgjsText1078" font-family="微软雅黑" text-anchor="middle" font-size="13px" width="80px" fill="#323232" font-weight="400" align="middle" anchor="middle" family="微软雅黑" size="13px" weight="400" font-style="" opacity="1" y="15.050000000000058" transform="rotate(0)"><tspan id="SvgjsTspan1079" dy="16" x="50"><tspan id="SvgjsTspan1080" style="text-decoration:;">捕获请求</tspan></tspan></text></g></g><g id="SvgjsG1081"><path id="SvgjsPath1082" d="M581 373.00000000000006L708.5 373.00000000000006L708.5 373.00000000000006L836 373.00000000000006" stroke="#323232" stroke-width="2" fill="none" marker-end="url(#SvgjsMarker1083)"></path><rect id="SvgjsRect1085" width="52" height="16" x="682.5" y="365.00000000000006" fill="#ffffff"></rect><text id="SvgjsText1086" font-family="微软雅黑" text-anchor="middle" font-size="13px" width="52px" fill="#323232" font-weight="400" align="top" anchor="middle" family="微软雅黑" size="13px" weight="400" font-style="" opacity="1" y="363.05000000000007" transform="rotate(0)"><tspan id="SvgjsTspan1087" dy="16" x="708.5"><tspan id="SvgjsTspan1088" style="text-decoration:;">提交系统</tspan></tspan></text></g><g id="SvgjsG1089" transform="translate(836,348)"><path id="SvgjsPath1090" d="M 0 0L 106 0L 106 50.000000000000114L 0 50.000000000000114Z" stroke="rgba(50,50,50,1)" stroke-width="2" fill-opacity="1" fill="#ffffff"></path><g id="SvgjsG1091"><text id="SvgjsText1092" font-family="微软雅黑" text-anchor="middle" font-size="13px" width="86px" fill="#323232" font-weight="400" align="middle" anchor="middle" family="微软雅黑" size="13px" weight="400" font-style="" opacity="1" y="15.050000000000058" transform="rotate(0)"><tspan id="SvgjsTspan1093" dy="16" x="53"><tspan id="SvgjsTspan1094" style="text-decoration:;">匹配协议</tspan></tspan></text></g></g><g id="SvgjsG1095"><path id="SvgjsPath1096" d="M889 398.0000000000001L889 637.5L618 637.5" stroke="#323232" stroke-width="2" fill="none" marker-end="url(#SvgjsMarker1097)"></path><rect id="SvgjsRect1099" width="100" height="16" x="823.25" y="629.5" fill="#ffffff"></rect><text id="SvgjsText1100" font-family="微软雅黑" text-anchor="middle" font-size="13px" width="100px" fill="#323232" font-weight="400" align="top" anchor="middle" family="微软雅黑" size="13px" weight="400" font-style="" opacity="1" y="627.55" transform="rotate(0)"><tspan id="SvgjsTspan1101" dy="16" x="873.25"><tspan id="SvgjsTspan1102" style="text-decoration:;">调用 Native 响应</tspan></tspan></text></g><g id="SvgjsG1103" transform="translate(438,612)"><path id="SvgjsPath1104" d="M 0 0L 180 0L 180 51L 0 51Z" stroke="rgba(50,50,50,1)" stroke-width="2" fill-opacity="1" fill="#ffffff"></path><g id="SvgjsG1105"><text id="SvgjsText1106" font-family="微软雅黑" text-anchor="middle" font-size="13px" width="160px" fill="#323232" font-weight="400" align="middle" anchor="middle" family="微软雅黑" size="13px" weight="400" font-style="" opacity="1" y="15.55" transform="rotate(0)"><tspan id="SvgjsTspan1107" dy="16" x="90"><tspan id="SvgjsTspan1108" style="text-decoration:;">自调用 Native 页面</tspan></tspan></text></g></g></svg>